<svg width="22" height="23" viewBox="0 0 22 23" fill="none" xmlns="http://www.w3.org/2000/svg">
<g id="file-text">
<g id="Path">
<path d="M12.8334 3.03V6.69667C12.8334 7.20293 13.2438 7.61333 13.75 7.61333H17.4167" stroke="#8B909A" stroke-width="1.75" stroke-linecap="round" stroke-linejoin="round"/>
<path d="M12.8334 3.03V6.69667C12.8334 7.20293 13.2438 7.61333 13.75 7.61333H17.4167" stroke="#8B909A" stroke-width="1.75" stroke-linecap="round" stroke-linejoin="round"/>
</g>
<g id="Path_2">
<path fill-rule="evenodd" clip-rule="evenodd" d="M15.5834 19.53H6.41671C5.40419 19.53 4.58337 18.7092 4.58337 17.6967V4.86333C4.58337 3.85081 5.40419 3.03 6.41671 3.03H12.8334L17.4167 7.61333V17.6967C17.4167 18.7092 16.5959 19.53 15.5834 19.53Z" stroke="#8B909A" stroke-width="1.75" stroke-linecap="round" stroke-linejoin="round"/>
<path fill-rule="evenodd" clip-rule="evenodd" d="M15.5834 19.53H6.41671C5.40419 19.53 4.58337 18.7092 4.58337 17.6967V4.86333C4.58337 3.85081 5.40419 3.03 6.41671 3.03H12.8334L17.4167 7.61333V17.6967C17.4167 18.7092 16.5959 19.53 15.5834 19.53Z" stroke="#8B909A" stroke-width="1.75" stroke-linecap="round" stroke-linejoin="round"/>
</g>
<g id="Path_3">
<path d="M8.25 8.53H9.16667" stroke="#8B909A" stroke-width="1.75" stroke-linecap="round" stroke-linejoin="round"/>
<path d="M8.25 8.53H9.16667" stroke="#8B909A" stroke-width="1.75" stroke-linecap="round" stroke-linejoin="round"/>
</g>
<g id="Path_4">
<path d="M8.25 12.1967H13.75" stroke="#8B909A" stroke-width="1.75" stroke-linecap="round" stroke-linejoin="round"/>
<path d="M8.25 12.1967H13.75" stroke="#8B909A" stroke-width="1.75" stroke-linecap="round" stroke-linejoin="round"/>
</g>
<g id="Path_5">
<path d="M8.25 15.8633H13.75" stroke="#8B909A" stroke-width="1.75" stroke-linecap="round" stroke-linejoin="round"/>
<path d="M8.25 15.8633H13.75" stroke="#8B909A" stroke-width="1.75" stroke-linecap="round" stroke-linejoin="round"/>
</g>
</g>
</svg>
