<svg width="22" height="23" viewBox="0 0 22 23" fill="none" xmlns="http://www.w3.org/2000/svg">
<g id="settings">
<g id="Path">
<path fill-rule="evenodd" clip-rule="evenodd" d="M9.46458 4.23728C9.85508 2.62761 12.1449 2.62761 12.5354 4.23728C12.6543 4.72775 13.0002 5.13197 13.4664 5.32513C13.9327 5.51829 14.4631 5.47716 14.894 5.21445C16.3084 4.35278 17.9282 5.97161 17.0665 7.38695C16.8042 7.81765 16.7631 8.34769 16.9561 8.81363C17.149 9.27957 17.5527 9.62545 18.0428 9.74461C19.6524 10.1351 19.6524 12.4249 18.0428 12.8154C17.5523 12.9343 17.1481 13.2802 16.9549 13.7465C16.7617 14.2127 16.8029 14.7431 17.0656 15.174C17.9272 16.5884 16.3084 18.2082 14.8931 17.3465C14.4624 17.0842 13.9323 17.0432 13.4664 17.2361C13.0005 17.429 12.6546 17.8328 12.5354 18.3228C12.1449 19.9324 9.85508 19.9324 9.46458 18.3228C9.34574 17.8323 8.9998 17.4281 8.53357 17.2349C8.06734 17.0418 7.53689 17.0829 7.106 17.3456C5.69158 18.2073 4.07183 16.5884 4.9335 15.1731C5.19584 14.7424 5.23687 14.2124 5.04393 13.7464C4.851 13.2805 4.44727 12.9346 3.95725 12.8154C2.34758 12.4249 2.34758 10.1351 3.95725 9.74461C4.44772 9.62577 4.85194 9.27983 5.0451 8.8136C5.23826 8.34737 5.19713 7.81692 4.93442 7.38603C4.07275 5.97161 5.69158 4.35186 7.10692 5.21353C8.02358 5.77086 9.21158 5.2777 9.46458 4.23728Z" stroke="#8B909A" stroke-width="1.75" stroke-linecap="round" stroke-linejoin="round"/>
<path fill-rule="evenodd" clip-rule="evenodd" d="M9.46458 4.23728C9.85508 2.62761 12.1449 2.62761 12.5354 4.23728C12.6543 4.72775 13.0002 5.13197 13.4664 5.32513C13.9327 5.51829 14.4631 5.47716 14.894 5.21445C16.3084 4.35278 17.9282 5.97161 17.0665 7.38695C16.8042 7.81765 16.7631 8.34769 16.9561 8.81363C17.149 9.27957 17.5527 9.62545 18.0428 9.74461C19.6524 10.1351 19.6524 12.4249 18.0428 12.8154C17.5523 12.9343 17.1481 13.2802 16.9549 13.7465C16.7617 14.2127 16.8029 14.7431 17.0656 15.174C17.9272 16.5884 16.3084 18.2082 14.8931 17.3465C14.4624 17.0842 13.9323 17.0432 13.4664 17.2361C13.0005 17.429 12.6546 17.8328 12.5354 18.3228C12.1449 19.9324 9.85508 19.9324 9.46458 18.3228C9.34574 17.8323 8.9998 17.4281 8.53357 17.2349C8.06734 17.0418 7.53689 17.0829 7.106 17.3456C5.69158 18.2073 4.07183 16.5884 4.9335 15.1731C5.19584 14.7424 5.23687 14.2124 5.04393 13.7464C4.851 13.2805 4.44727 12.9346 3.95725 12.8154C2.34758 12.4249 2.34758 10.1351 3.95725 9.74461C4.44772 9.62577 4.85194 9.27983 5.0451 8.8136C5.23826 8.34737 5.19713 7.81692 4.93442 7.38603C4.07275 5.97161 5.69158 4.35186 7.10692 5.21353C8.02358 5.77086 9.21158 5.2777 9.46458 4.23728Z" stroke="#8B909A" stroke-width="1.75" stroke-linecap="round" stroke-linejoin="round"/>
</g>
<g id="Oval">
<circle cx="11" cy="11.28" r="2.75" stroke="#8B909A" stroke-width="1.75" stroke-linecap="round" stroke-linejoin="round"/>
<circle cx="11" cy="11.28" r="2.75" stroke="#8B909A" stroke-width="1.75" stroke-linecap="round" stroke-linejoin="round"/>
</g>
</g>
</svg>
