<svg width="22" height="23" viewBox="0 0 22 23" fill="none" xmlns="http://www.w3.org/2000/svg">
<g id="ticket">
<g id="Path">
<path d="M13.75 4.86333V6.69667" stroke="#8B909A" stroke-width="1.75" stroke-linecap="round" stroke-linejoin="round"/>
<path d="M13.75 4.86333V6.69667" stroke="#8B909A" stroke-width="1.75" stroke-linecap="round" stroke-linejoin="round"/>
</g>
<g id="Path_2">
<path d="M13.75 10.3633V12.1967" stroke="#8B909A" stroke-width="1.75" stroke-linecap="round" stroke-linejoin="round"/>
<path d="M13.75 10.3633V12.1967" stroke="#8B909A" stroke-width="1.75" stroke-linecap="round" stroke-linejoin="round"/>
</g>
<g id="Path_3">
<path d="M13.75 15.8633V17.6967" stroke="#8B909A" stroke-width="1.75" stroke-linecap="round" stroke-linejoin="round"/>
<path d="M13.75 15.8633V17.6967" stroke="#8B909A" stroke-width="1.75" stroke-linecap="round" stroke-linejoin="round"/>
</g>
<g id="Path_4">
<path d="M4.58333 4.86333H17.4167C18.4292 4.86333 19.25 5.68415 19.25 6.69667V9.44667C18.2375 9.44667 17.4167 10.2675 17.4167 11.28C17.4167 12.2925 18.2375 13.1133 19.25 13.1133V15.8633C19.25 16.8759 18.4292 17.6967 17.4167 17.6967H4.58333C3.57081 17.6967 2.75 16.8759 2.75 15.8633V13.1133C3.76252 13.1133 4.58333 12.2925 4.58333 11.28C4.58333 10.2675 3.76252 9.44667 2.75 9.44667V6.69667C2.75 5.68415 3.57081 4.86333 4.58333 4.86333" stroke="#8B909A" stroke-width="1.75" stroke-linecap="round" stroke-linejoin="round"/>
<path d="M4.58333 4.86333H17.4167C18.4292 4.86333 19.25 5.68415 19.25 6.69667V9.44667C18.2375 9.44667 17.4167 10.2675 17.4167 11.28C17.4167 12.2925 18.2375 13.1133 19.25 13.1133V15.8633C19.25 16.8759 18.4292 17.6967 17.4167 17.6967H4.58333C3.57081 17.6967 2.75 16.8759 2.75 15.8633V13.1133C3.76252 13.1133 4.58333 12.2925 4.58333 11.28C4.58333 10.2675 3.76252 9.44667 2.75 9.44667V6.69667C2.75 5.68415 3.57081 4.86333 4.58333 4.86333" stroke="#8B909A" stroke-width="1.75" stroke-linecap="round" stroke-linejoin="round"/>
</g>
</g>
</svg>
