<svg width="22" height="23" viewBox="0 0 22 23" fill="none" xmlns="http://www.w3.org/2000/svg">
<g id="users">
<g id="Oval">
<ellipse cx="8.25004" cy="6.69667" rx="3.66667" ry="3.66667" stroke="#8B909A" stroke-width="1.75" stroke-linecap="round" stroke-linejoin="round"/>
<ellipse cx="8.25004" cy="6.69667" rx="3.66667" ry="3.66667" stroke="#8B909A" stroke-width="1.75" stroke-linecap="round" stroke-linejoin="round"/>
</g>
<g id="Path">
<path d="M2.75 19.53V17.6967C2.75 15.6716 4.39162 14.03 6.41667 14.03H10.0833C12.1084 14.03 13.75 15.6716 13.75 17.6967V19.53" stroke="#8B909A" stroke-width="1.75" stroke-linecap="round" stroke-linejoin="round"/>
<path d="M2.75 19.53V17.6967C2.75 15.6716 4.39162 14.03 6.41667 14.03H10.0833C12.1084 14.03 13.75 15.6716 13.75 17.6967V19.53" stroke="#8B909A" stroke-width="1.75" stroke-linecap="round" stroke-linejoin="round"/>
</g>
<g id="Path_2">
<path d="M14.6666 3.14906C16.289 3.56446 17.4238 5.02638 17.4238 6.70114C17.4238 8.3759 16.289 9.83782 14.6666 10.2532" stroke="#8B909A" stroke-width="1.75" stroke-linecap="round" stroke-linejoin="round"/>
<path d="M14.6666 3.14906C16.289 3.56446 17.4238 5.02638 17.4238 6.70114C17.4238 8.3759 16.289 9.83782 14.6666 10.2532" stroke="#8B909A" stroke-width="1.75" stroke-linecap="round" stroke-linejoin="round"/>
</g>
<g id="Path_3">
<path d="M19.25 19.5299V17.6966C19.2404 16.0324 18.1113 14.5834 16.5 14.1674" stroke="#8B909A" stroke-width="1.75" stroke-linecap="round" stroke-linejoin="round"/>
<path d="M19.25 19.5299V17.6966C19.2404 16.0324 18.1113 14.5834 16.5 14.1674" stroke="#8B909A" stroke-width="1.75" stroke-linecap="round" stroke-linejoin="round"/>
</g>
</g>
</svg>
